<?xml version="1.0" encoding="utf-8"?>
<svg version="1.1" id="Layer_1" xmlns="http://www.w3.org/2000/svg"
  xmlns:xlink="http://www.w3.org/1999/xlink" x="0px" y="0px"
  viewBox="330 180 360 360" style="enable-background:new 0 0 1024 720;" xml:space="preserve">
<style type="text/css">
	.st0{fill:#141E29;}
	.st1{fill:#3D5875;}
	.st2{fill:#0FBBEA;}
</style>
<g>
  <circle class="st0" cx="512.43" cy="360.68" r="160.91"/>
	<path class="st1" d="M521.11,359.64c0,4.79-3.89,8.68-8.68,8.68c-4.79,0-8.68-3.89-8.68-8.68c0-4.8,3.89-8.68,8.68-8.68
		C517.22,350.96,521.11,354.85,521.11,359.64z"/>
	<path class="st1" d="M518.14,359.64c0,3.16-2.56,5.72-5.72,5.72c-3.16,0-5.72-2.56-5.72-5.72s2.56-5.72,5.72-5.72
		C515.58,353.92,518.14,356.48,518.14,359.64z"/>
	<path class="st1" d="M518.14,359.64c0,3.16-2.56,5.72-5.72,5.72c-3.16,0-5.72-2.56-5.72-5.72c0-3.16,2.56-5.72,5.72-5.72
		C515.58,353.92,518.14,356.48,518.14,359.64z"/>
	<g>
		<path class="st1" d="M455.61,371.56c-0.73-2.06,0.35-4.32,2.42-5.05c2.06-0.73,4.33,0.35,5.05,2.42c0.73,2.06-0.35,4.33-2.42,5.05
			C458.6,374.71,456.33,373.63,455.61,371.56z"/>
		<path class="st1" d="M552.76,367.31c-0.5-1.43,0.25-3,1.67-3.5c1.43-0.5,3,0.25,3.5,1.67c0.5,1.43-0.25,3-1.68,3.5
			C554.84,369.48,553.27,368.74,552.76,367.31z"/>
		<path class="st1" d="M407.73,423.45c-0.85-2.41,0.41-5.04,2.82-5.89c2.41-0.85,5.04,0.41,5.89,2.82c0.85,2.41-0.41,5.04-2.82,5.89
			C411.21,427.11,408.57,425.85,407.73,423.45z"/>
		<path class="st1" d="M412.36,397.69c-0.9-2.55,0.44-5.34,2.99-6.24c2.55-0.9,5.34,0.44,6.24,2.99c0.9,2.55-0.44,5.34-2.99,6.24
			C416.05,401.58,413.26,400.24,412.36,397.69z"/>
		<path class="st1" d="M396.71,362.66c-0.72-2.04,0.35-4.28,2.39-5c2.04-0.72,4.28,0.35,5,2.39c0.72,2.04-0.35,4.28-2.39,5
			C399.67,365.77,397.43,364.7,396.71,362.66z"/>
		<path class="st1" d="M462.79,312.06c-0.72-2.04,0.35-4.28,2.39-5c2.04-0.72,4.28,0.35,5,2.39c0.72,2.04-0.35,4.28-2.39,5
			C465.75,315.17,463.51,314.1,462.79,312.06z"/>
		<path class="st1" d="M434.6,332.29c-0.47-1.32,0.23-2.77,1.55-3.24c1.32-0.47,2.77,0.23,3.24,1.55c0.47,1.32-0.23,2.77-1.55,3.24
			C436.51,334.31,435.06,333.61,434.6,332.29z"/>
		<path class="st1" d="M535.35,339.02c-0.55-1.55,0.27-3.25,1.82-3.8c1.55-0.55,3.25,0.27,3.8,1.82c0.55,1.55-0.27,3.25-1.82,3.8
			C537.59,341.38,535.89,340.57,535.35,339.02z"/>
		<path class="st1" d="M541.21,316.99c-1-2.84,0.49-5.96,3.33-6.96c2.84-1,5.96,0.49,6.96,3.33c1,2.84-0.49,5.96-3.33,6.96
			C545.33,321.32,542.21,319.83,541.21,316.99z"/>
		<path class="st1" d="M557.77,411.39c-0.6-1.69,0.29-3.54,1.98-4.14c1.69-0.6,3.54,0.29,4.14,1.98c0.6,1.69-0.29,3.54-1.98,4.14
			C560.22,413.97,558.37,413.08,557.77,411.39z"/>
		<path class="st1" d="M585.79,382.12c-0.48-1.36,0.23-2.85,1.59-3.33c1.36-0.48,2.85,0.23,3.33,1.59c0.48,1.36-0.23,2.85-1.59,3.33
			C587.76,384.19,586.27,383.48,585.79,382.12z"/>
		<path class="st1" d="M589.92,338.72c-0.38-1.07,0.18-2.23,1.25-2.61c1.07-0.38,2.23,0.18,2.61,1.25c0.38,1.07-0.18,2.23-1.25,2.61
			C591.46,340.35,590.29,339.79,589.92,338.72z"/>
		<path class="st1" d="M628.77,314.65c-0.68-1.93,0.33-4.04,2.26-4.72c1.93-0.68,4.04,0.33,4.72,2.26c0.68,1.93-0.33,4.04-2.26,4.72
			C631.56,317.59,629.45,316.58,628.77,314.65z"/>
		<path class="st1" d="M541.31,397.1c-0.57-1.62,0.28-3.39,1.89-3.96c1.62-0.57,3.39,0.28,3.96,1.89c0.57,1.62-0.28,3.39-1.9,3.96
			C543.65,399.56,541.88,398.71,541.31,397.1z"/>
		<path class="st1" d="M630.09,382.93c-0.92-2.62,0.45-5.49,3.07-6.42c2.62-0.93,5.49,0.45,6.42,3.07c0.92,2.62-0.45,5.49-3.07,6.42
			C633.88,386.92,631.01,385.54,630.09,382.93z"/>
		<path class="st1" d="M617.51,415.16c-0.67-1.89,0.32-3.97,2.22-4.64c1.89-0.67,3.97,0.32,4.64,2.22c0.67,1.89-0.32,3.97-2.22,4.64
			C620.26,418.05,618.18,417.05,617.51,415.16z"/>
		<line class="st1" x1="462.58" y1="297.91" x2="461.11" y2="294.84"/>
		<polygon class="st1" points="419.19,286.36 416.88,284.38 438.08,259.63 501.45,237.69 529.31,241.72 528.88,244.73 501.75,240.8 
			439.85,262.23 		"/>
		<polygon class="st1" points="500.77,484.61 466.48,475.49 467.26,472.55 500.98,481.52 556.54,474.73 601.5,440.84 603.33,443.26 
			557.72,477.65 		"/>
		<path class="st1" d="M611.1,439.18c0,4.8-3.89,8.68-8.68,8.68c-4.8,0-8.68-3.89-8.68-8.68c0-4.8,3.89-8.68,8.68-8.68
			C607.21,430.49,611.1,434.38,611.1,439.18z"/>
		<path class="st1" d="M476.78,473.43c0,4.8-3.89,8.68-8.68,8.68c-4.79,0-8.68-3.89-8.68-8.68c0-4.79,3.89-8.68,8.68-8.68
			C472.89,464.74,476.78,468.63,476.78,473.43z"/>
		<path class="st1" d="M509.01,482.11c0,4.01-3.25,7.27-7.27,7.27c-4.01,0-7.27-3.25-7.27-7.27c0-4.01,3.25-7.27,7.27-7.27
			C505.75,474.84,509.01,478.09,509.01,482.11z"/>
		<path class="st1" d="M563.58,474.84c0,4.54-3.68,8.22-8.22,8.22c-4.54,0-8.22-3.68-8.22-8.22s3.68-8.22,8.22-8.22
			C559.89,466.62,563.58,470.3,563.58,474.84z"/>
		<circle class="st1" cx="418.04" cy="286.16" r="8.68"/>
		<g>
			<polygon class="st2" points="533.26,285.98 533.26,433.58 560.83,433.58 560.83,461.8 464.02,461.8 464.02,433.58 491.25,433.58 
				491.25,285.98 464.02,285.98 464.02,257.49 560.83,257.49 560.83,285.98 			"/>
		</g>
		<path class="st2" d="M512.43,530.08c-93.98,0-170.44-76.46-170.44-170.44c0-93.98,76.46-170.44,170.44-170.44
			c93.98,0,170.43,76.46,170.43,170.44C682.86,453.62,606.4,530.08,512.43,530.08z M512.43,201.32
			c-87.3,0-158.32,71.02-158.32,158.32c0,87.3,71.02,158.32,158.32,158.32c87.3,0,158.32-71.02,158.32-158.32
			C670.75,272.34,599.73,201.32,512.43,201.32z"/>
		<path class="st1" d="M512.43,507.55c-81.56,0-147.91-66.35-147.91-147.91c0-81.56,66.35-147.91,147.91-147.91
			c81.56,0,147.91,66.35,147.91,147.91C660.33,441.2,593.98,507.55,512.43,507.55z M512.43,217.13
			c-78.58,0-142.51,63.93-142.51,142.51c0,78.58,63.93,142.51,142.51,142.51c78.58,0,142.51-63.93,142.51-142.51
			C654.94,281.06,591,217.13,512.43,217.13z"/>
		<g>
			<path class="st1" d="M624.29,370.1c-9.32,3.51-19.72-1.19-23.23-10.51c-3.51-9.32,1.19-19.72,10.51-23.23
				c9.32-3.51,19.72,1.19,23.23,10.51C638.31,356.19,633.61,366.59,624.29,370.1z"/>
			<path class="st1" d="M573.87,334.04c-5.76,2.17-12.19-0.74-14.36-6.5c-2.17-5.76,0.74-12.19,6.5-14.36
				c5.76-2.17,12.19,0.74,14.36,6.5C582.54,325.44,579.63,331.87,573.87,334.04z"/>
			<path class="st1" d="M576.72,380.68c-5.76,2.17-12.19-0.74-14.36-6.5c-2.17-5.76,0.74-12.19,6.5-14.36
				c5.76-2.17,12.19,0.74,14.36,6.5C585.39,372.07,582.48,378.5,576.72,380.68z"/>
			
				<rect x="591.61" y="310.05" transform="matrix(0.51 -0.8601 0.8601 0.51 -0.5833 676.2729)" class="st1" width="3.45" height="57.19"/>
			<g>
				<path class="st1" d="M598.25,398.74c-5.76,2.17-8.67,8.6-6.5,14.36c2.17,5.76,8.6,8.67,14.36,6.5c5.76-2.17,8.67-8.6,6.5-14.36
					C610.44,399.48,604.01,396.57,598.25,398.74z"/>
				
					<rect x="581.24" y="380.71" transform="matrix(0.3097 -0.9508 0.9508 0.3097 57.3517 843.8656)" class="st1" width="57.19" height="3.45"/>
			</g>
			
				<rect x="568" y="360.6" transform="matrix(0.9357 -0.3528 0.3528 0.9357 -89.642 232.7601)" class="st1" width="51.59" height="3.45"/>
		</g>
		<g>
			<path class="st1" d="M607.88,299.39c-4.74-1.84-7.09-7.18-5.24-11.92c1.84-4.74,7.18-7.09,11.92-5.24
				c4.74,1.84,7.09,7.18,5.24,11.92C617.95,298.88,612.62,301.23,607.88,299.39z"/>
			<path class="st1" d="M601.01,268.49c-2.93-1.14-4.38-4.44-3.24-7.37c1.14-2.93,4.44-4.38,7.37-3.24
				c2.93,1.14,4.38,4.44,3.24,7.37C607.24,268.18,603.94,269.63,601.01,268.49z"/>
			<path class="st1" d="M586.19,287.18c-2.93-1.14-4.38-4.44-3.24-7.37c1.14-2.93,4.44-4.38,7.37-3.24
				c2.93,1.14,4.38,4.44,3.24,7.37C592.42,286.87,589.12,288.32,586.19,287.18z"/>
			
				<rect x="605.95" y="262.27" transform="matrix(0.954 -0.2998 0.2998 0.954 -55.0953 194.6726)" class="st1" width="1.76" height="29.2"/>
			<g>
				<path class="st1" d="M588.21,301.39c-2.93-1.14-6.23,0.31-7.37,3.24c-1.14,2.93,0.31,6.23,3.24,7.37
					c2.93,1.14,6.23-0.31,7.37-3.24C592.6,305.83,591.14,302.53,588.21,301.39z"/>
				
					<rect x="583.57" y="298.27" transform="matrix(0.8653 -0.5012 0.5012 0.8653 -69.3779 340.0698)" class="st1" width="29.2" height="1.76"/>
			</g>
			
				<rect x="598.06" y="272.86" transform="matrix(0.3623 -0.9321 0.9321 0.3623 115.3573 740.6656)" class="st1" width="1.76" height="26.34"/>
		</g>
		<g>
			<path class="st1" d="M402.16,349.09c8.03-2.33,16.43,2.3,18.76,10.33c2.33,8.03-2.3,16.43-10.33,18.76
				c-8.03,2.33-16.43-2.3-18.76-10.33C389.5,359.81,394.13,351.41,402.16,349.09z"/>
			<path class="st1" d="M442,382.6c4.97-1.44,10.16,1.42,11.6,6.39c1.44,4.97-1.42,10.16-6.39,11.6c-4.97,1.44-10.16-1.42-11.6-6.39
				C434.17,389.23,437.03,384.04,442,382.6z"/>
			<path class="st1" d="M442.69,343.37c4.97-1.44,10.16,1.42,11.6,6.39c1.44,4.97-1.42,10.16-6.39,11.6
				c-4.97,1.44-10.16-1.42-11.6-6.39C434.86,350,437.72,344.81,442.69,343.37z"/>
			
				<rect x="424.56" y="353.44" transform="matrix(0.5761 -0.8174 0.8174 0.5761 -127.9443 508.2115)" class="st1" width="2.89" height="48.03"/>
			<g>
				<path class="st1" d="M425.85,326.82c4.97-1.44,7.83-6.63,6.39-11.6c-1.44-4.97-6.63-7.83-11.6-6.39
					c-4.97,1.44-7.83,6.63-6.39,11.6C415.69,325.4,420.88,328.26,425.85,326.82z"/>
				
					<rect x="391.06" y="338.26" transform="matrix(0.3833 -0.9236 0.9236 0.3833 -57.7967 592.8579)" class="st1" width="48.03" height="2.89"/>
			</g>
			
				<rect x="405.52" y="356.16" transform="matrix(0.9605 -0.2782 0.2782 0.9605 -82.6274 132.9721)" class="st1" width="43.33" height="2.89"/>
		</g>
		<g>
			<path class="st1" d="M424.43,438.94c3.03-2.39,7.43-1.86,9.82,1.17c2.39,3.03,1.86,7.43-1.17,9.82
				c-3.03,2.39-7.43,1.86-9.82-1.17C420.87,445.73,421.4,441.33,424.43,438.94z"/>
			<path class="st1" d="M447.29,446.38c1.88-1.48,4.59-1.15,6.07,0.72c1.48,1.88,1.15,4.59-0.72,6.07
				c-1.88,1.48-4.59,1.15-6.07-0.72C445.09,450.57,445.41,447.85,447.29,446.38z"/>
			<path class="st1" d="M440.78,429.47c1.88-1.48,4.59-1.15,6.07,0.72c1.48,1.88,1.15,4.59-0.72,6.07
				c-1.88,1.48-4.59,1.15-6.07-0.72C438.58,433.66,438.91,430.94,440.78,429.47z"/>
			
				<rect x="438.89" y="435.86" transform="matrix(0.2268 -0.9739 0.9739 0.2268 -95.4545 773.6585)" class="st1" width="1.34" height="22.18"/>
			<g>
				<path class="st1" d="M430.71,425.31c1.88-1.48,2.2-4.19,0.72-6.07c-1.48-1.88-4.19-2.2-6.07-0.72c-1.88,1.48-2.2,4.19-0.72,6.07
					C426.11,426.46,428.83,426.78,430.71,425.31z"/>
				
					<rect x="417.24" y="432.02" transform="matrix(8.698842e-03 -1 1 8.698842e-03 -8.0667 857.2438)" class="st1" width="22.18" height="1.34"/>
			</g>
			
				<rect x="426.61" y="437.58" transform="matrix(0.7857 -0.6186 0.6186 0.7857 -177.536 363.9969)" class="st1" width="20.01" height="1.34"/>
		</g>
	</g>
	<path class="st1" d="M540.9,241.99c0,4.8-3.89,8.68-8.68,8.68c-4.79,0-8.68-3.89-8.68-8.68s3.89-8.68,8.68-8.68
		C537.01,233.31,540.9,237.2,540.9,241.99z"/>
</g>
</svg>