<?xml version="1.0" encoding="utf-8"?>
<!-- Generator: Adobe Illustrator 23.0.5, SVG Export Plug-In . SVG Version: 6.00 Build 0)  -->
<svg version="1.1" id="Layer_1" xmlns="http://www.w3.org/2000/svg"
	xmlns:xlink="http://www.w3.org/1999/xlink" x="0px" y="0px"
	viewBox="330 180 360 360" style="enable-background:new 0 0 1024 720;" xml:space="preserve">
<style type="text/css">
	.st0{fill:#DDE5EE;}
	.st1{fill:#99B2CC;}
	.st2{fill:#1A1A1A;}
</style>
<g>
  <circle class="st0" cx="512.43" cy="360.68" r="160.91"/>
	<g>
		<g>
			<g>
				<path class="st1" d="M525.03,364.83c0,4.75-3.85,8.61-8.61,8.61c-4.75,0-8.61-3.85-8.61-8.61c0-4.76,3.85-8.61,8.61-8.61
					C521.18,356.22,525.03,360.08,525.03,364.83z"/>
			</g>
			<g>
				<path class="st1" d="M522.1,364.83c0,3.13-2.54,5.67-5.67,5.67c-3.13,0-5.67-2.54-5.67-5.67c0-3.13,2.54-5.67,5.67-5.67
					C519.56,359.16,522.1,361.7,522.1,364.83z"/>
			</g>
			<g>
				<path class="st1" d="M522.1,364.83c0,3.13-2.54,5.67-5.67,5.67c-3.13,0-5.67-2.54-5.67-5.67c0-3.13,2.54-5.67,5.67-5.67
					C519.56,359.16,522.1,361.7,522.1,364.83z"/>
			</g>
			<g>
				<path class="st1" d="M460.08,376.65c-0.72-2.05,0.35-4.29,2.4-5.01c2.05-0.72,4.29,0.35,5.01,2.4c0.72,2.05-0.35,4.29-2.4,5.01
					C463.04,379.77,460.8,378.7,460.08,376.65z"/>
			</g>
			<g>
				<path class="st1" d="M556.43,372.43c-0.5-1.42,0.24-2.97,1.66-3.47c1.42-0.5,2.97,0.24,3.47,1.66c0.5,1.42-0.24,2.97-1.66,3.47
					C558.48,374.59,556.93,373.85,556.43,372.43z"/>
			</g>
			<g>
				<path class="st1" d="M412.6,428.1c-0.84-2.39,0.41-5,2.79-5.84c2.39-0.84,5,0.41,5.84,2.79c0.84,2.39-0.41,5-2.79,5.84
					S413.44,430.49,412.6,428.1z"/>
			</g>
			<g>
				<path class="st1" d="M417.19,402.56c-0.89-2.53,0.43-5.3,2.96-6.19c2.53-0.89,5.3,0.43,6.19,2.96c0.89,2.53-0.43,5.3-2.96,6.19
					C420.86,406.42,418.09,405.09,417.19,402.56z"/>
			</g>
			<g>
				<path class="st1" d="M401.68,367.83c-0.71-2.02,0.35-4.24,2.37-4.95c2.02-0.71,4.24,0.35,4.95,2.37
					c0.71,2.02-0.35,4.24-2.37,4.95C404.61,370.91,402.39,369.85,401.68,367.83z"/>
			</g>
			<g>
				<path class="st1" d="M467.2,317.65c-0.71-2.02,0.35-4.24,2.37-4.95c2.02-0.71,4.24,0.35,4.95,2.37
					c0.71,2.02-0.35,4.24-2.37,4.95C470.13,320.73,467.92,319.67,467.2,317.65z"/>
			</g>
			<g>
				<path class="st1" d="M439.25,337.71c-0.46-1.31,0.22-2.75,1.54-3.21c1.31-0.46,2.75,0.22,3.21,1.54
					c0.46,1.31-0.22,2.75-1.54,3.21C441.15,339.71,439.71,339.02,439.25,337.71z"/>
			</g>
			<g>
				<path class="st1" d="M539.15,344.38c-0.54-1.54,0.26-3.22,1.8-3.77c1.54-0.54,3.22,0.26,3.77,1.8c0.54,1.54-0.26,3.22-1.8,3.77
					C541.38,346.72,539.7,345.91,539.15,344.38z"/>
			</g>
			<g>
				<path class="st1" d="M544.97,322.53c-0.99-2.82,0.48-5.91,3.3-6.9c2.82-0.99,5.91,0.48,6.9,3.3c0.99,2.82-0.48,5.91-3.3,6.9
					C549.06,326.83,545.97,325.35,544.97,322.53z"/>
			</g>
			<g>
				<path class="st1" d="M561.39,416.15c-0.59-1.67,0.29-3.51,1.96-4.1c1.68-0.59,3.51,0.29,4.1,1.96c0.59,1.68-0.29,3.51-1.96,4.1
					C563.82,418.71,561.98,417.83,561.39,416.15z"/>
			</g>
			<g>
				<path class="st1" d="M589.18,387.12c-0.47-1.35,0.23-2.82,1.58-3.3c1.35-0.48,2.82,0.23,3.3,1.58c0.47,1.35-0.23,2.82-1.58,3.3
					C591.13,389.17,589.66,388.47,589.18,387.12z"/>
			</g>
			<g>
				<path class="st1" d="M593.27,344.09c-0.37-1.06,0.18-2.22,1.24-2.59c1.06-0.37,2.22,0.18,2.59,1.24
					c0.37,1.06-0.18,2.22-1.24,2.59C594.8,345.7,593.64,345.14,593.27,344.09z"/>
			</g>
			<g>
				<path class="st1" d="M631.8,320.21c-0.67-1.91,0.33-4.01,2.24-4.68c1.91-0.67,4.01,0.33,4.68,2.24
					c0.68,1.91-0.33,4.01-2.24,4.68C634.57,323.13,632.47,322.13,631.8,320.21z"/>
			</g>
			<g>
				<path class="st1" d="M545.07,401.97c-0.57-1.6,0.28-3.36,1.88-3.93c1.6-0.57,3.36,0.28,3.93,1.88c0.57,1.6-0.28,3.36-1.88,3.93
					C547.39,404.42,545.63,403.58,545.07,401.97z"/>
			</g>
			<g>
				<path class="st1" d="M633.11,387.92c-0.92-2.6,0.45-5.45,3.04-6.36c2.6-0.92,5.45,0.45,6.36,3.04c0.92,2.6-0.45,5.45-3.04,6.36
					C636.87,391.88,634.02,390.52,633.11,387.92z"/>
			</g>
			<g>
				<path class="st1" d="M620.64,419.89c-0.66-1.88,0.32-3.94,2.2-4.6c1.88-0.66,3.94,0.32,4.6,2.2c0.66,1.88-0.32,3.94-2.2,4.6
					C623.36,422.75,621.3,421.76,620.64,419.89z"/>
			</g>
			<g>
				<line class="st1" x1="467" y1="303.61" x2="465.54" y2="300.57"/>
			</g>
			<g>
				<polygon class="st1" points="423.97,292.16 421.68,290.2 442.7,265.65 505.54,243.9 533.17,247.89 532.74,250.88 505.84,246.98 
					444.46,268.23 				"/>
			</g>
			<g>
				<polygon class="st1" points="504.87,488.76 470.87,479.71 471.64,476.8 505.08,485.69 560.17,478.96 604.76,445.35 
					606.57,447.76 561.34,481.86 				"/>
			</g>
			<g>
				<path class="st1" d="M614.28,443.7c0,4.76-3.85,8.61-8.61,8.61c-4.76,0-8.61-3.85-8.61-8.61c0-4.76,3.85-8.61,8.61-8.61
					C610.42,435.09,614.28,438.95,614.28,443.7z"/>
			</g>
			<g>
				<path class="st1" d="M481.07,477.67c0,4.76-3.85,8.61-8.61,8.61c-4.75,0-8.61-3.85-8.61-8.61c0-4.75,3.85-8.61,8.61-8.61
					C477.22,469.06,481.07,472.91,481.07,477.67z"/>
			</g>
			<g>
				<path class="st1" d="M513.03,486.28c0,3.98-3.23,7.21-7.21,7.21c-3.98,0-7.21-3.23-7.21-7.21c0-3.98,3.23-7.21,7.21-7.21
					C509.81,479.07,513.03,482.3,513.03,486.28z"/>
			</g>
			<g>
				<path class="st1" d="M567.15,479.07c0,4.5-3.65,8.16-8.15,8.16c-4.5,0-8.16-3.65-8.16-8.16c0-4.5,3.65-8.16,8.16-8.16
					C563.5,470.91,567.15,474.57,567.15,479.07z"/>
			</g>
			<g>
				<circle class="st1" cx="422.82" cy="291.96" r="8.61"/>
			</g>
			<g>
				<g>
					<path class="st1" d="M516.43,511.51c-80.88,0-146.67-65.8-146.67-146.67c0-80.88,65.8-146.67,146.67-146.67
						c80.88,0,146.67,65.8,146.67,146.67C663.1,445.71,597.3,511.51,516.43,511.51z M516.43,223.51
						c-77.93,0-141.32,63.4-141.32,141.32c0,77.93,63.4,141.32,141.32,141.32c77.92,0,141.32-63.4,141.32-141.32
						C657.75,286.91,594.35,223.51,516.43,223.51z"/>
				</g>
			</g>
			<g>
				<path class="st1" d="M627.36,375.2c-9.24,3.48-19.55-1.18-23.03-10.42c-3.48-9.24,1.18-19.55,10.42-23.03
					c9.24-3.48,19.55,1.18,23.03,10.42C641.26,361.41,636.6,371.72,627.36,375.2z"/>
				<path class="st1" d="M577.36,339.45c-5.71,2.15-12.09-0.73-14.24-6.45c-2.15-5.71,0.73-12.09,6.45-14.24
					c5.71-2.15,12.09,0.73,14.24,6.45C585.96,330.92,583.07,337.29,577.36,339.45z"/>
				<path class="st1" d="M580.18,385.69c-5.71,2.15-12.09-0.73-14.24-6.45c-2.15-5.71,0.73-12.09,6.45-14.24
					c5.71-2.15,12.09,0.73,14.24,6.45C588.78,377.16,585.89,383.54,580.18,385.69z"/>
				
					<rect x="594.95" y="315.65" transform="matrix(0.51 -0.8601 0.8601 0.51 -3.5677 681.7615)" class="st1" width="3.42" height="56.72"/>
				<g>
					<path class="st1" d="M601.54,403.6c-5.71,2.15-8.6,8.53-6.45,14.24c2.15,5.71,8.53,8.6,14.24,6.45
						c5.71-2.15,8.6-8.53,6.45-14.24C613.63,404.34,607.25,401.45,601.54,403.6z"/>
					
						<rect x="584.66" y="385.73" transform="matrix(0.3097 -0.9508 0.9508 0.3097 54.7992 850.348)" class="st1" width="56.72" height="3.42"/>
				</g>
				
					<rect x="571.53" y="365.78" transform="matrix(0.9357 -0.3528 0.3528 0.9357 -91.2511 234.2641)" class="st1" width="51.16" height="3.42"/>
			</g>
			<g>
				<path class="st1" d="M611.08,305.08c-4.7-1.83-7.03-7.12-5.2-11.82c1.83-4.7,7.12-7.03,11.82-5.2c4.7,1.83,7.03,7.12,5.2,11.82
					C621.07,304.58,615.78,306.9,611.08,305.08z"/>
				<path class="st1" d="M604.27,274.44c-2.91-1.13-4.35-4.4-3.22-7.31c1.13-2.91,4.4-4.35,7.31-3.22c2.91,1.13,4.35,4.4,3.22,7.31
					C610.45,274.13,607.17,275.57,604.27,274.44z"/>
				<path class="st1" d="M589.57,292.98c-2.91-1.13-4.35-4.4-3.22-7.31c1.13-2.91,4.4-4.35,7.31-3.22c2.91,1.13,4.35,4.4,3.22,7.31
					C595.75,292.67,592.48,294.11,589.57,292.98z"/>
				
					<rect x="609.17" y="268.27" transform="matrix(0.954 -0.2998 0.2998 0.954 -56.7101 195.9064)" class="st1" width="1.74" height="28.96"/>
				<g>
					<path class="st1" d="M591.58,307.07c-2.91-1.13-6.18,0.31-7.31,3.22c-1.13,2.91,0.31,6.18,3.22,7.31
						c2.91,1.13,6.18-0.31,7.31-3.22C595.93,311.47,594.49,308.2,591.58,307.07z"/>
					
						<rect x="586.98" y="303.97" transform="matrix(0.8653 -0.5012 0.5012 0.8653 -71.7888 342.4828)" class="st1" width="28.96" height="1.74"/>
				</g>
				
					<rect x="601.34" y="278.77" transform="matrix(0.3622 -0.9321 0.9321 0.3622 112.0874 747.4731)" class="st1" width="1.75" height="26.12"/>
			</g>
			<g>
				<path class="st1" d="M407.08,354.36c7.97-2.31,16.29,2.28,18.6,10.25c2.31,7.97-2.28,16.29-10.25,18.6
					c-7.97,2.31-16.29-2.28-18.6-10.25C394.53,365,399.12,356.67,407.08,354.36z"/>
				<path class="st1" d="M446.59,387.6c4.93-1.43,10.07,1.41,11.5,6.34c1.43,4.93-1.41,10.07-6.34,11.5
					c-4.93,1.43-10.07-1.41-11.5-6.34C438.82,394.17,441.66,389.02,446.59,387.6z"/>
				<path class="st1" d="M447.27,348.69c4.93-1.43,10.07,1.41,11.5,6.34c1.43,4.93-1.41,10.07-6.34,11.5
					c-4.93,1.43-10.07-1.41-11.5-6.34C439.51,355.27,442.35,350.12,447.27,348.69z"/>
				
					<rect x="429.29" y="358.68" transform="matrix(0.5761 -0.8174 0.8174 0.5761 -130.0634 514.2064)" class="st1" width="2.87" height="47.63"/>
				<g>
					<path class="st1" d="M430.57,332.29c4.93-1.43,7.76-6.57,6.34-11.5c-1.43-4.93-6.57-7.76-11.5-6.34
						c-4.93,1.43-7.76,6.57-6.34,11.5C420.5,330.88,425.65,333.71,430.57,332.29z"/>
					
						<rect x="396.07" y="343.63" transform="matrix(0.3833 -0.9236 0.9236 0.3833 -59.7757 600.6041)" class="st1" width="47.63" height="2.87"/>
				</g>
				
					<rect x="410.41" y="361.38" transform="matrix(0.9605 -0.2782 0.2782 0.9605 -83.8899 134.4882)" class="st1" width="42.97" height="2.87"/>
			</g>
			<g>
				<path class="st1" d="M429.16,443.47c3.01-2.37,7.37-1.85,9.74,1.16c2.37,3.01,1.85,7.37-1.16,9.74s-7.37,1.85-9.74-1.16
					C425.64,450.2,426.16,445.84,429.16,443.47z"/>
				<path class="st1" d="M451.83,450.84c1.86-1.46,4.56-1.14,6.02,0.72c1.46,1.86,1.14,4.56-0.72,6.02
					c-1.86,1.46-4.56,1.14-6.02-0.72C449.65,455,449.97,452.31,451.83,450.84z"/>
				<path class="st1" d="M445.38,434.07c1.86-1.46,4.56-1.14,6.02,0.72c1.46,1.86,1.14,4.56-0.72,6.02
					c-1.86,1.46-4.56,1.14-6.02-0.72C443.2,438.23,443.52,435.54,445.38,434.07z"/>
				
					<rect x="443.5" y="440.41" transform="matrix(0.2268 -0.9739 0.9739 0.2268 -96.2372 781.595)" class="st1" width="1.33" height="21.99"/>
				<g>
					<path class="st1" d="M435.39,429.95c1.86-1.46,2.18-4.16,0.72-6.02c-1.46-1.86-4.16-2.18-6.02-0.72
						c-1.86,1.46-2.18,4.16-0.72,6.02C430.83,431.09,433.53,431.41,435.39,429.95z"/>
					
						<rect x="422.04" y="436.61" transform="matrix(8.698842e-03 -1 1 8.698842e-03 -7.9865 866.4849)" class="st1" width="21.99" height="1.33"/>
				</g>
				
					<rect x="431.33" y="442.12" transform="matrix(0.7857 -0.6186 0.6186 0.7857 -179.348 367.8337)" class="st1" width="19.84" height="1.33"/>
			</g>
			<g>
				<path class="st1" d="M541.78,250.14c0,4.76-3.85,8.61-8.61,8.61c-4.75,0-8.61-3.85-8.61-8.61s3.85-8.61,8.61-8.61
					C537.93,241.53,541.78,245.38,541.78,250.14z"/>
			</g>
		</g>
	</g>
	<g>
		<polygon class="st2" points="537.09,291.78 537.09,438.16 564.43,438.16 564.43,466.13 468.42,466.13 468.42,438.16 
			495.43,438.16 495.43,291.78 468.42,291.78 468.42,263.53 564.43,263.53 564.43,291.78 		"/>
	</g>
	<path class="st2" d="M516.43,533.85c-93.2,0-169.01-75.82-169.01-169.02c0-93.2,75.82-169.02,169.01-169.02
		c93.19,0,169.01,75.82,169.01,169.02C685.44,458.03,609.62,533.85,516.43,533.85z M516.43,207.83c-86.57,0-157,70.43-157,157
		c0,86.57,70.43,157,157,157c86.57,0,157-70.43,157-157C673.43,278.26,603,207.83,516.43,207.83z"/>
</g>
</svg>